<?xml version="1.0" encoding="UTF-8" standalone="no"?><!DOCTYPE svg PUBLIC "-//W3C//DTD SVG 1.1//EN" "http://www.w3.org/Graphics/SVG/1.1/DTD/svg11.dtd"><svg width="100%" height="100%" viewBox="0 0 1738 1738" version="1.1" xmlns="http://www.w3.org/2000/svg" xmlns:xlink="http://www.w3.org/1999/xlink" xml:space="preserve" xmlns:serif="http://www.serif.com/" style="fill-rule:evenodd;clip-rule:evenodd;stroke-linecap:round;stroke-linejoin:round;stroke-miterlimit:1.5;"><g id="Book"><path d="M1221.65,174.021c19.033,-0 37.288,7.558 50.746,21.016c13.458,13.459 21.016,31.713 21.016,50.746l0,1247.41c0,38.05 -30.845,68.896 -68.895,68.896l-972.784,-0l0,-1388.07l969.917,-0Z" style="fill:#c0c0c0;stroke:#000;stroke-width:34.71px;"/><path d="M370.388,277.279l2.895,968.65" style="fill:none;stroke:#000;stroke-width:34.71px;"/><rect x="556.138" y="348.658" width="528.125" height="273.329" style="fill:#c0c0c0;stroke:#000;stroke-width:34.71px;"/><path d="M617.8,426.254l400.321,-0.296" style="fill:none;stroke:#000;stroke-width:34.71px;"/><path d="M617.8,485.325l400.321,-0.296" style="fill:none;stroke:#000;stroke-width:34.71px;"/><path d="M617.8,550.608l400.321,-0.291" style="fill:none;stroke:#000;stroke-width:34.71px;"/><path d="M371.4,1331.5l0.35,116.825" style="fill:none;stroke:#000;stroke-width:34.71px;"/></g><g id="Pen"><rect x="1402.98" y="709.825" width="81.396" height="754.879" style="fill:#a0a0a0;stroke:#000;stroke-width:34.71px;"/><path d="M1444.03,620.358l40.346,89.467l-80.687,0l40.341,-89.467Z" style="fill:#a0a0a0;stroke:#000;stroke-width:34.71px;"/><path d="M1484.38,1464.7l0,62.763c0,19.121 -15.5,34.625 -34.625,34.625l-8.775,-0c-10.079,-0 -19.742,-4.004 -26.866,-11.129c-7.125,-7.125 -11.13,-16.792 -11.13,-26.867l0,-59.392l81.396,0Z" style="fill:#a0a0a0;stroke:#000;stroke-width:34.71px;"/></g></svg>