<?xml version="1.0" encoding="UTF-8" standalone="no"?><!DOCTYPE svg PUBLIC "-//W3C//DTD SVG 1.1//EN" "http://www.w3.org/Graphics/SVG/1.1/DTD/svg11.dtd"><svg width="100%" height="100%" viewBox="0 0 417 417" version="1.1" xmlns="http://www.w3.org/2000/svg" xmlns:xlink="http://www.w3.org/1999/xlink" xml:space="preserve" xmlns:serif="http://www.serif.com/" style="fill-rule:evenodd;clip-rule:evenodd;stroke-linecap:round;stroke-linejoin:round;stroke-miterlimit:1.5;"><g id="Book"><path d="M293.196,41.765c4.568,-0 8.949,1.814 12.179,5.044c3.23,3.23 5.044,7.611 5.044,12.179c0,57.567 0,242.844 0,299.379c0,9.132 -7.403,16.535 -16.535,16.535c-55.767,-0 -233.468,-0 -233.468,-0l-0,-333.137l232.78,-0Z" style="fill:#c0c0c0;stroke:#000;stroke-width:8.33px;"/><path d="M88.893,66.547l0.695,232.476" style="fill:none;stroke:#000;stroke-width:8.33px;"/><rect x="133.473" y="83.678" width="126.75" height="65.599" style="fill:#c0c0c0;stroke:#000;stroke-width:8.33px;"/><path d="M148.272,102.301l96.077,-0.071" style="fill:none;stroke:#000;stroke-width:8.33px;"/><path d="M148.272,116.478l96.077,-0.071" style="fill:none;stroke:#000;stroke-width:8.33px;"/><path d="M148.272,132.146l96.077,-0.07" style="fill:none;stroke:#000;stroke-width:8.33px;"/><path d="M89.136,319.559l0.084,28.038" style="fill:none;stroke:#000;stroke-width:8.33px;"/></g><g id="Pen"><rect x="336.716" y="170.358" width="19.535" height="181.171" style="fill:#a0a0a0;stroke:#000;stroke-width:8.33px;"/><path d="M346.568,148.886l9.683,21.472l-19.365,-0l9.682,-21.472Z" style="fill:#a0a0a0;stroke:#000;stroke-width:8.33px;"/><path d="M356.251,351.529l0,15.063c0,4.589 -3.72,8.31 -8.31,8.31c-0.697,-0 -1.404,-0 -2.106,-0c-2.419,-0 -4.738,-0.961 -6.448,-2.671c-1.71,-1.71 -2.671,-4.03 -2.671,-6.448c-0,-6.56 -0,-14.254 -0,-14.254l19.535,-0Z" style="fill:#a0a0a0;stroke:#000;stroke-width:8.33px;"/></g></svg>