<?xml version="1.0" encoding="UTF-8" standalone="no"?><!DOCTYPE svg PUBLIC "-//W3C//DTD SVG 1.1//EN" "http://www.w3.org/Graphics/SVG/1.1/DTD/svg11.dtd"><svg width="100%" height="100%" viewBox="0 0 1738 1738" version="1.1" xmlns="http://www.w3.org/2000/svg" xmlns:xlink="http://www.w3.org/1999/xlink" xml:space="preserve" xmlns:serif="http://www.serif.com/" style="fill-rule:evenodd;clip-rule:evenodd;stroke-linecap:round;stroke-linejoin:round;stroke-miterlimit:1.5;"><g id="Fuß"><path d="M828.415,1283.1c-155.626,20.788 -293.091,12.836 -402.278,-39.864c-78.44,39.658 -127.475,90.082 -146.239,151.589c172.482,117.021 355.157,82.22 548.517,-111.725Z" style="fill:#383838;stroke:#000;stroke-width:10.42px;"/><path d="M912.362,1283.1c155.626,20.788 293.09,12.836 402.278,-39.864c78.439,39.658 127.475,90.082 146.239,151.589c-172.482,117.021 -355.157,82.22 -548.517,-111.725Z" style="fill:#383838;stroke:#000;stroke-width:10.42px;"/></g><g><path d="M804.017,1254.26c-311.015,78.051 -573.899,-93.699 -795.172,-481.412c133.27,-9.185 258.133,2.747 375.445,33.645c55.742,204.07 192.008,355.698 419.727,447.767Z" style="fill:#383838;stroke:#000;stroke-width:10.42px;"/><path d="M935.47,1257.31c311.015,78.051 573.899,-93.699 795.172,-481.412c-133.27,-9.185 -258.133,2.747 -375.445,33.645c-55.742,204.07 -192.008,355.698 -419.727,447.767Z" style="fill:#383838;stroke:#000;stroke-width:10.42px;"/><path d="M811.934,1217.76c-137.044,-182.138 -187.326,-379.475 -132.49,-595.228c-89.57,-80.834 -191.196,-152.993 -305.983,-215.684c-10.705,419.955 112.46,712.194 438.473,810.912Z" style="fill:#383838;stroke:#000;stroke-width:10.42px;"/><path d="M925.948,1220.24c137.045,-182.137 187.327,-379.475 132.491,-595.228c89.569,-80.834 191.196,-152.993 305.982,-215.683c10.706,419.954 -112.459,712.194 -438.473,810.911Z" style="fill:#383838;stroke:#000;stroke-width:10.42px;"/><path d="M874.784,1229.66c238.312,-282.292 230.662,-600.021 -4.052,-950.465c-229.352,347.448 -266.014,669.316 4.052,950.465Z" style="fill:#383838;stroke:#000;stroke-width:10.42px;"/></g></svg>